<svg width="20" height="13" viewBox="0 0 20 13" fill="none" xmlns="http://www.w3.org/2000/svg">
<path d="M10.7 11.9371C10.4667 12.0704 10.2583 12.0494 10.075 11.8741C9.89167 11.6987 9.86667 11.4947 10 11.2621L12.425 7.01207H1C0.71667 7.01207 0.479003 6.91607 0.287003 6.72407C0.0950034 6.53207 -0.000663206 6.29474 3.46021e-06 6.01207C3.46021e-06 5.72874 0.0960036 5.49107 0.288004 5.29907C0.480004 5.10707 0.717337 5.0114 1 5.01207H12.425L10 0.762071C9.86667 0.528738 9.89167 0.324405 10.075 0.149071C10.2583 -0.026262 10.4667 -0.046929 10.7 0.087071L18.675 5.16207C18.9917 5.36207 19.15 5.6454 19.15 6.01207C19.15 6.37874 18.9917 6.66207 18.675 6.86207L10.7 11.9371Z" fill="#838B93"/>
</svg>
