<svg width="52" height="51" viewBox="0 0 52 51" fill="none" xmlns="http://www.w3.org/2000/svg">
<path d="M47.6667 0H4.33333C3.18406 0 2.08186 0.447766 1.2692 1.2448C0.456546 2.04183 0 3.12283 0 4.25V46.75C0 47.8772 0.456546 48.9582 1.2692 49.7552C2.08186 50.5522 3.18406 51 4.33333 51H47.6667C48.8159 51 49.9181 50.5522 50.7308 49.7552C51.5435 48.9582 52 47.8772 52 46.75V4.25C52 3.12283 51.5435 2.04183 50.7308 1.2448C49.9181 0.447766 48.8159 0 47.6667 0ZM4.33333 46.75V4.25H47.6667V46.75H4.33333Z" fill="black"/>
</svg>
