<svg width="53" height="53" viewBox="0 0 53 53" fill="none" xmlns="http://www.w3.org/2000/svg">
<path d="M48.0625 0.625H4.9375C3.79375 0.625 2.69685 1.07935 1.8881 1.8881C1.07935 2.69685 0.625 3.79375 0.625 4.9375V48.0625C0.625 49.2062 1.07935 50.3031 1.8881 51.1119C2.69685 51.9206 3.79375 52.375 4.9375 52.375H48.0625C49.2062 52.375 50.3031 51.9206 51.1119 51.1119C51.9206 50.3031 52.375 49.2062 52.375 48.0625V4.9375C52.375 3.79375 51.9206 2.69685 51.1119 1.8881C50.3031 1.07935 49.2062 0.625 48.0625 0.625ZM4.9375 48.0625V4.9375H48.0625V48.0625H4.9375Z" fill="black"/>
<path d="M22.1875 38.3594L11.4062 27.6644L14.8347 24.3438L22.1875 31.5672L38.1653 15.7188L41.5938 19.1256L22.1875 38.3594Z" fill="black"/>
</svg>
